# xmcd
#
# Track frame offsets:
#	150
#	18357
#	34295
#	52817
#	71705
#	88072
#	105642
#	117095
#	135612
#	157745
#	174320
#	191097
#	207187
#	222810
#	240645
#	258722
#	272737
#
# Disc length: 3920 seconds
#
# Revision: 1
# Processed by: cddbd v1.4PL0 Copyright (c) Steve Scherf et al.
# Submitted via: audiograbber 1.81.03
#
DISCID=ec0f4e11
DTITLE=Various Artist - Forever Country
DYEAR=1998
DGENRE=Country
TTITLE0=Trace Adkins - (This ain't) No Thinkin' Thing
TTITLE1=Clint Black - The shoes you're wearing
TTITLE2=Little Texas - My Love
TTITLE3=Mark Chesnutt - Almost Goodbye
TTITLE4=Mark Wills - Don't Laugh At Me
TTITLE5=John Berry - Your Love Amazes Me
TTITLE6=Tracy Byrd - Holdin' Heaven
TTITLE7=Vince Gill - Pocket Full Of Gold
TTITLE8=Steve Wariner - What If I Said
TTITLE9=Paul Brandt - I Do
TTITLE10=Restless Heart - When She Cries
TTITLE11=Travis Tritt - Can I Trust You With My Heart
TTITLE12=Ken Sharp - Nobody Knows
TTITLE13=Bryan White - Rebecca Lynn
TTITLE14=Billy Ray Cyrus - In The Heart Of A Woman
TTITLE15=Randy Travis - Forever Together
TTITLE16=Raybon Brothers - Butterfly Kisses
EXTD=
EXTT0=
EXTT1=
EXTT2=
EXTT3=
EXTT4=
EXTT5=
EXTT6=
EXTT7=
EXTT8=
EXTT9=
EXTT10=
EXTT11=
EXTT12=
EXTT13=
EXTT14=
EXTT15=
EXTT16=
PLAYORDER=
